<?xml version="1.0" standalone="no"?>
<!DOCTYPE svg PUBLIC "-//W3C//DTD SVG 20010904//EN"
 "http://www.w3.org/TR/2001/REC-SVG-20010904/DTD/svg10.dtd">
<svg version="1.0" xmlns="http://www.w3.org/2000/svg"
 width="300.000000pt" height="300.000000pt" viewBox="0 0 300.000000 300.000000"
 preserveAspectRatio="xMidYMid meet">
<metadata>
Created by potrace 1.14, written by Peter Selinger 2001-2017
</metadata>
<g transform="translate(0.000000,300.000000) scale(0.100000,-0.100000)"
fill="#000000" stroke="none">
<path d="M2700 2767 c-168 -165 -210 -200 -295 -251 -55 -32 -244 -147 -420
-254 l-319 -195 -29 17 c-29 16 -30 16 -74 -20 -33 -27 -47 -34 -56 -25 -6 6
-25 11 -41 11 -26 0 -68 -37 -309 -277 l-279 -278 5 76 c13 191 146 388 324
481 106 56 172 72 300 72 l112 1 23 40 c19 34 23 61 28 175 6 119 10 141 33
186 42 82 79 105 268 169 93 31 169 61 169 67 0 5 -4 6 -10 3 -5 -3 -10 -1
-10 6 0 7 -3 9 -7 6 -3 -4 -21 3 -40 14 -18 11 -33 18 -33 15 0 -4 -11 1 -25
10 -14 9 -25 13 -25 9 0 -4 -7 -2 -15 5 -8 7 -15 9 -15 5 0 -4 -7 -1 -17 6 -9
8 -18 13 -20 12 -1 -2 -4 -3 -5 -2 -2 0 -10 2 -18 4 -8 2 -25 6 -37 9 -13 3
-32 8 -43 10 -11 3 -25 8 -30 11 -6 3 -10 1 -10 -6 0 -8 -4 -8 -12 -2 -19 14
-50 24 -44 14 3 -5 -1 -14 -9 -21 -8 -7 -15 -9 -15 -4 0 5 -5 1 -11 -9 -6 -9
-14 -15 -19 -12 -4 3 -6 -5 -2 -17 5 -21 6 -21 13 -2 6 15 8 15 8 3 1 -9 -6
-22 -14 -29 -8 -7 -12 -16 -9 -21 9 -16 -3 -10 -17 8 -12 14 -12 16 0 8 10 -6
12 -4 6 5 -5 9 -4 11 3 6 8 -5 10 -1 5 10 -4 11 -8 13 -11 6 -2 -7 -8 -10 -13
-6 -5 3 -8 0 -7 -8 2 -7 -2 -12 -9 -11 -8 2 -10 -4 -6 -15 3 -9 3 -14 -2 -10
-11 11 -36 -12 -28 -25 4 -6 0 -8 -10 -4 -10 4 -16 2 -14 -6 1 -7 -3 -11 -10
-10 -8 2 -10 -4 -6 -14 4 -10 2 -14 -5 -9 -6 3 -13 2 -16 -3 -13 -21 14 -20
28 1 9 12 16 17 16 11 0 -7 -5 -15 -10 -18 -6 -4 -8 -10 -5 -15 3 -5 -4 -7
-15 -5 -11 2 -21 -2 -22 -8 -2 -23 -16 118 -17 185 l-1 67 -67 -5 c-346 -25
-627 -142 -886 -369 -220 -193 -373 -460 -439 -768 -31 -147 -31 -409 0 -554
27 -126 72 -256 122 -350 l37 -73 -94 -262 c-51 -145 -100 -277 -108 -293 -27
-59 -65 -173 -65 -197 0 -30 17 -48 48 -48 24 0 177 51 209 70 10 6 135 52
278 103 l260 92 85 -42 c101 -50 238 -96 358 -120 131 -27 403 -24 539 5 570
122 993 545 1115 1115 29 136 31 398 5 531 -29 145 -111 379 -139 397 -5 3 5
43 22 88 30 82 36 106 22 85 -4 -6 -54 -37 -112 -69 -274 -152 -423 -235 -425
-235 -4 0 6 95 17 150 l10 55 334 335 c217 219 334 343 334 356 0 26 -19 44
-44 44 -13 -1 -93 -71 -216 -193z m-946 101 c-3 -5 -9 -6 -14 -3 -5 3 -15 -6
-23 -21 -12 -24 -15 -25 -21 -8 -4 10 -4 15 0 11 4 -4 13 1 20 11 12 18 49 27
38 10z m-110 -93 c3 -8 0 -14 -7 -12 -7 1 -11 -4 -9 -10 1 -7 -4 -12 -10 -10
-7 1 -12 -3 -11 -10 1 -6 -5 -17 -14 -25 -12 -9 -15 -9 -9 0 4 7 2 12 -6 12
-9 0 -9 3 2 10 8 5 15 15 15 22 1 7 6 12 13 10 7 -1 15 5 18 13 8 19 10 19 18
0z m356 -820 c9 -9 37 -22 61 -29 24 -8 36 -14 26 -15 -10 -1 -53 -21 -97 -46
-69 -41 -81 -44 -99 -33 -36 22 -32 36 26 88 32 27 59 50 62 50 2 0 12 -7 21
-15z m120 -442 c0 -163 -41 -286 -135 -404 -104 -132 -292 -228 -445 -229
l-45 0 278 278 c240 240 277 282 277 308 0 16 -5 35 -11 41 -9 9 -2 23 27 57
22 25 42 45 47 46 4 0 7 -44 7 -97z"/>
</g>
</svg>
